<?xml version="1.0" encoding="UTF-8"?>
<!DOCTYPE svg PUBLIC "-//W3C//DTD SVG 1.1//EN" "http://www.w3.org/Graphics/SVG/1.1/DTD/svg11.dtd">
<!-- Creator: CorelDRAW X7 -->
<svg xmlns="http://www.w3.org/2000/svg" xml:space="preserve" width="58.2083mm" height="41.8041mm" version="1.1" style="shape-rendering:geometricPrecision; text-rendering:geometricPrecision; image-rendering:optimizeQuality; fill-rule:evenodd; clip-rule:evenodd"
viewBox="0 0 47 33"
 xmlns:xlink="http://www.w3.org/1999/xlink">
 <defs>
  <style type="text/css">
   <![CDATA[
    .fil0 {fill:#419E70}
   ]]>
  </style>
 </defs>
 <g id="Слой_x0020_1">
  <metadata id="CorelCorpID_0Corel-Layer"/>
  <path class="fil0" d="M13 0l31 0c1,0 3,1 3,3l0 3c0,1 -2,2 -3,2l-31 0c-1,0 -3,-1 -3,-2l0 -3c0,-2 2,-3 3,-3zm-10 0l3 0c1,0 2,1 2,3l0 3c0,1 -1,2 -2,2l-3 0c-2,0 -3,-1 -3,-2l0 -3c0,-2 1,-3 3,-3zm10 13l31 0c1,0 3,1 3,2l0 3c0,2 -2,3 -3,3l-31 0c-1,0 -3,-1 -3,-3l0 -3c0,-1 2,-2 3,-2zm-10 0l3 0c1,0 2,1 2,2l0 3c0,2 -1,3 -2,3l-3 0c-2,0 -3,-1 -3,-3l0 -3c0,-1 1,-2 3,-2zm10 12l31 0c1,0 3,1 3,3l0 3c0,1 -2,2 -3,2l-31 0c-1,0 -3,-1 -3,-2l0 -3c0,-2 2,-3 3,-3zm-10 0l3 0c1,0 2,1 2,3l0 3c0,1 -1,2 -2,2l-3 0c-2,0 -3,-1 -3,-2l0 -3c0,-2 1,-3 3,-3z"/>
 </g>
</svg>
